<svg xmlns="http://www.w3.org/2000/svg" width="47" height="46">
    <path fill-rule="evenodd" fill="#2A2A2A" d="m33.762 29.748.001.012.094-.093 12.626 12.626-3.666 3.665-12.625-12.626.126-.126-.013-.002-.945-2.363a17.198 17.198 0 0 1-11.15 4.091c-9.544 0-17.28-7.737-17.28-17.28C.93 8.108 8.666.372 18.21.372c9.543 0 17.28 7.736 17.28 17.28 0 4.253-1.543 8.141-4.091 11.151l2.363.945zM18.168 5.64c-6.976 0-12.631 5.078-12.631 12.054 0 6.975 5.655 12.63 12.631 12.63 6.975 0 12.63-5.655 12.63-12.63 0-6.976-5.655-12.054-12.63-12.054z"/>
</svg>
